<?xml version="1.0" encoding="utf-8"?>
<!-- Generator: Adobe Illustrator 25.0.1, SVG Export Plug-In . SVG Version: 6.00 Build 0)  -->
<svg version="1.1" id="Layer_1" xmlns="http://www.w3.org/2000/svg" xmlns:xlink="http://www.w3.org/1999/xlink" x="0px" y="0px"
	 viewBox="0 0 157.7 39.6" style="enable-background:new 0 0 157.7 39.6;" xml:space="preserve">
<style type="text/css">
	.st0{fill:#010101;}
</style>
<g id="logo" transform="translate(-18.045 -32.45)">
	<path id="Path_500" class="st0" d="M28.4,61.5L23.8,72h-1.1L18,61.5h1.2l4,9.1l4.1-9.1H28.4z M36,68.4h-6.6c0,0.8,0.4,1.5,0.9,2
		c0.6,0.5,1.4,0.8,2.2,0.8c0.5,0,0.9-0.1,1.3-0.3c0.4-0.2,0.8-0.4,1.1-0.8l0.6,0.7c-0.4,0.4-0.8,0.8-1.3,1c-0.5,0.2-1.1,0.3-1.7,0.3
		c-0.8,0-1.5-0.2-2.2-0.5c-0.6-0.3-1.1-0.8-1.5-1.4c-0.4-0.6-0.5-1.3-0.5-2.1c0-0.7,0.2-1.4,0.5-2.1c0.3-0.6,0.8-1.1,1.4-1.4
		c0.6-0.3,1.3-0.5,2-0.5c0.7,0,1.4,0.2,2,0.5c0.6,0.3,1.1,0.8,1.4,1.4c0.3,0.6,0.5,1.4,0.5,2.1L36,68.4z M32.2,65
		c-0.7,0-1.4,0.2-1.9,0.7c-0.5,0.5-0.8,1.2-0.9,1.9H35c0-0.7-0.4-1.4-0.9-1.9C33.6,65.2,32.9,64.9,32.2,65z M39.2,65.7
		c0.2-0.5,0.6-0.9,1.1-1.2c0.6-0.3,1.2-0.4,1.8-0.4v1l-0.3,0c-0.7,0-1.4,0.2-2,0.8c-0.5,0.6-0.8,1.4-0.7,2.1v4h-1.1v-7.9h1V65.7z
		 M46.3,72.1c-0.6,0-1.2-0.1-1.8-0.3c-0.5-0.1-1-0.4-1.4-0.7l0.5-0.8c0.4,0.3,0.8,0.5,1.2,0.6c0.5,0.2,1,0.2,1.6,0.2
		c0.6,0,1.1-0.1,1.6-0.3c0.3-0.2,0.5-0.6,0.5-1c0-0.3-0.1-0.5-0.3-0.7c-0.2-0.2-0.5-0.3-0.7-0.4c-0.4-0.1-0.8-0.2-1.2-0.2
		c-0.5-0.1-1-0.2-1.5-0.4c-0.4-0.1-0.7-0.3-1-0.6c-0.3-0.3-0.4-0.8-0.4-1.2c0-0.6,0.3-1.2,0.8-1.6c0.7-0.5,1.5-0.7,2.3-0.6
		c0.5,0,1,0.1,1.5,0.2c0.4,0.1,0.9,0.3,1.3,0.5l-0.5,0.9c-0.7-0.5-1.5-0.7-2.3-0.7c-0.5,0-1.1,0.1-1.5,0.4c-0.3,0.2-0.5,0.6-0.5,0.9
		c0,0.3,0.1,0.5,0.3,0.7c0.2,0.2,0.5,0.3,0.7,0.4c0.4,0.1,0.8,0.2,1.2,0.3c0.5,0.1,1,0.2,1.5,0.4c0.4,0.1,0.7,0.3,1,0.6
		c0.3,0.3,0.4,0.8,0.4,1.2c0,0.7-0.3,1.3-0.9,1.6C47.9,71.9,47.1,72.1,46.3,72.1z M51.5,64.1h1.1V72h-1.1V64.1z M52,62.4
		c-0.2,0-0.4-0.1-0.6-0.2c-0.1-0.1-0.2-0.3-0.2-0.5c0-0.2,0.1-0.4,0.2-0.5c0.1-0.1,0.3-0.2,0.6-0.2c0.2,0,0.4,0.1,0.6,0.2
		c0.1,0.1,0.2,0.3,0.2,0.5c0,0.2-0.1,0.4-0.2,0.6C52.4,62.3,52.2,62.4,52,62.4z M58.7,72.1c-0.7,0-1.4-0.2-2.1-0.5
		c-0.6-0.3-1.1-0.8-1.4-1.4c-0.4-0.6-0.5-1.3-0.5-2.1c0-0.7,0.2-1.4,0.5-2.1c0.3-0.6,0.8-1.1,1.4-1.4c0.6-0.3,1.3-0.5,2.1-0.5
		c0.7,0,1.4,0.2,2.1,0.5c0.6,0.3,1.1,0.8,1.4,1.4c0.4,0.6,0.5,1.3,0.5,2.1c0,0.7-0.2,1.4-0.5,2.1c-0.3,0.6-0.8,1.1-1.4,1.4
		C60.2,71.9,59.5,72.1,58.7,72.1z M58.7,71.1c0.5,0,1-0.1,1.5-0.4c0.4-0.3,0.8-0.6,1-1.1c0.3-0.5,0.4-1,0.4-1.6
		c0-0.6-0.1-1.1-0.4-1.6c-0.2-0.5-0.6-0.8-1-1.1c-0.5-0.3-1-0.4-1.5-0.4c-0.5,0-1,0.1-1.5,0.4c-0.4,0.3-0.8,0.6-1,1.1
		c-0.3,0.5-0.4,1-0.4,1.6c0,0.6,0.1,1.1,0.4,1.6c0.2,0.5,0.6,0.8,1,1.1C57.7,71,58.2,71.1,58.7,71.1z M68.9,64.1
		c0.9,0,1.7,0.3,2.4,0.9c0.6,0.7,0.9,1.6,0.9,2.5V72h-1.1v-4.5c0-0.7-0.2-1.4-0.6-1.9C70,65.2,69.4,65,68.7,65c-0.7,0-1.5,0.2-2,0.8
		c-0.5,0.6-0.8,1.3-0.7,2.1V72h-1.1v-7.9h1v1.5c0.3-0.5,0.7-0.9,1.2-1.1C67.7,64.2,68.3,64,68.9,64.1z M82.5,72.1
		c-0.8,0-1.5-0.2-2.2-0.6c-0.7-0.5-1.2-1.1-1.5-1.9c-0.4-0.9-0.6-1.9-0.5-2.8c0-1,0.2-1.9,0.5-2.8c0.3-0.7,0.8-1.4,1.5-1.9
		c0.6-0.4,1.4-0.7,2.2-0.6c0.8,0,1.5,0.2,2.2,0.6c0.7,0.5,1.2,1.1,1.5,1.9c0.4,0.9,0.6,1.9,0.5,2.8c0,1-0.2,1.9-0.5,2.8
		c-0.3,0.7-0.8,1.4-1.5,1.9C84,71.9,83.3,72.1,82.5,72.1z M82.5,71.1c0.6,0,1.1-0.2,1.6-0.5c0.5-0.4,0.9-0.9,1.1-1.5
		c0.3-0.8,0.4-1.6,0.4-2.4c0-0.8-0.1-1.6-0.4-2.4c-0.2-0.6-0.6-1.1-1.1-1.5c-0.5-0.3-1-0.5-1.6-0.5c-0.6,0-1.1,0.2-1.6,0.5
		c-0.5,0.4-0.9,0.9-1.1,1.5c-0.3,0.8-0.4,1.6-0.4,2.4c0,0.8,0.1,1.6,0.4,2.4c0.2,0.6,0.6,1.1,1.1,1.5C81.3,70.9,81.9,71.1,82.5,71.1
		z M88.9,72.1c-0.2,0-0.4-0.1-0.6-0.2c-0.2-0.2-0.2-0.4-0.2-0.6c0-0.2,0.1-0.4,0.2-0.6c0.1-0.2,0.4-0.2,0.6-0.2
		c0.2,0,0.4,0.1,0.6,0.2c0.2,0.1,0.2,0.4,0.2,0.6c0,0.2-0.1,0.4-0.2,0.6C89.3,72,89.1,72.1,88.9,72.1z M95.3,72.1
		c-0.8,0-1.5-0.2-2.2-0.6c-0.7-0.5-1.2-1.1-1.5-1.9c-0.4-0.9-0.6-1.9-0.5-2.8c0-1,0.2-1.9,0.5-2.8c0.3-0.7,0.8-1.4,1.5-1.9
		c0.6-0.4,1.4-0.7,2.2-0.6c0.8,0,1.5,0.2,2.2,0.6c0.7,0.5,1.2,1.1,1.5,1.9c0.4,0.9,0.6,1.9,0.5,2.8c0,1-0.2,1.9-0.5,2.8
		c-0.3,0.7-0.8,1.4-1.5,1.9C96.8,71.9,96,72.1,95.3,72.1z M95.3,71.1c0.6,0,1.1-0.2,1.6-0.5c0.5-0.4,0.9-0.9,1.1-1.5
		c0.3-0.8,0.4-1.6,0.4-2.4c0-0.8-0.1-1.6-0.4-2.4c-0.2-0.6-0.6-1.1-1.1-1.5c-0.5-0.3-1-0.5-1.6-0.5c-0.6,0-1.1,0.2-1.6,0.5
		c-0.5,0.4-0.9,0.9-1.1,1.5c-0.3,0.8-0.4,1.6-0.4,2.4c0,0.8,0.1,1.6,0.4,2.4c0.2,0.6,0.6,1.1,1.1,1.5C94.1,70.9,94.7,71.1,95.3,71.1
		z M101.7,72.1c-0.2,0-0.4-0.1-0.6-0.2c-0.2-0.2-0.2-0.4-0.2-0.6c0-0.2,0.1-0.4,0.2-0.6c0.1-0.2,0.4-0.2,0.6-0.2
		c0.2,0,0.4,0.1,0.6,0.2c0.2,0.1,0.2,0.4,0.2,0.6c0,0.2-0.1,0.4-0.2,0.6C102.1,72,101.9,72.1,101.7,72.1z M106.8,61.5V72h-1.1v-9.5
		h-2.5v-1H106.8z"/>
</g>
<g>
	<path d="M29.7,1.5l-6,18.2h-3.6L15.6,6.3L11,19.7H7.4l-6-18.2h3.5l4.5,13.8l4.7-13.8h3.1l4.6,13.9l4.7-13.9H29.7z"/>
	<path d="M32.5,3c-0.4-0.4-0.6-0.8-0.6-1.4c0-0.6,0.2-1,0.6-1.4c0.4-0.4,0.9-0.6,1.5-0.6c0.6,0,1.1,0.2,1.5,0.5
		C35.8,0.6,36,1,36,1.5c0,0.6-0.2,1.1-0.6,1.4c-0.4,0.4-0.9,0.6-1.5,0.6C33.4,3.6,32.9,3.4,32.5,3z M32.3,5.9h3.2v13.9h-3.2V5.9z"/>
	<path d="M39.8,0.4h3.2v19.3h-3.2V0.4z"/>
	<path d="M53,13.8l-2.4,2.3v3.7h-3.2V0.4h3.2v11.6l6.7-6.2h3.9l-5.8,5.8l6.3,8.1h-4L53,13.8z"/>
	<path d="M76.3,13.8H65.4c0.2,1,0.7,1.8,1.5,2.4c0.8,0.6,1.8,0.9,3,0.9c1.5,0,2.8-0.5,3.8-1.5l1.7,2C74.8,18.4,74,19,73,19.3
		c-1,0.4-2,0.6-3.2,0.6c-1.5,0-2.9-0.3-4-0.9c-1.2-0.6-2.1-1.5-2.7-2.5c-0.6-1.1-0.9-2.3-0.9-3.7c0-1.4,0.3-2.6,0.9-3.7
		c0.6-1.1,1.5-1.9,2.6-2.5C66.7,6,68,5.7,69.3,5.7c1.4,0,2.6,0.3,3.6,0.9s1.9,1.4,2.5,2.5c0.6,1.1,0.9,2.3,0.9,3.8
		C76.3,13.1,76.3,13.4,76.3,13.8z M66.7,9.2c-0.7,0.6-1.2,1.4-1.3,2.5h7.9c-0.1-1-0.6-1.8-1.3-2.4c-0.7-0.6-1.6-0.9-2.7-0.9
		C68.3,8.3,67.4,8.6,66.7,9.2z"/>
	<path d="M80.5,19.5c-1.1-0.3-1.9-0.7-2.6-1.1l1.2-2.5c0.6,0.4,1.4,0.8,2.2,1c0.9,0.3,1.7,0.4,2.6,0.4c1.9,0,2.9-0.5,2.9-1.5
		c0-0.5-0.2-0.8-0.7-1c-0.5-0.2-1.3-0.4-2.4-0.5c-1.1-0.2-2.1-0.4-2.8-0.6c-0.7-0.2-1.3-0.6-1.9-1.2c-0.5-0.6-0.8-1.3-0.8-2.4
		c0-1.3,0.5-2.4,1.7-3.2c1.1-0.8,2.6-1.2,4.5-1.2c1,0,1.9,0.1,2.9,0.3s1.7,0.5,2.3,0.9l-1.2,2.5c-1.2-0.7-2.5-1-4-1
		c-1,0-1.7,0.1-2.2,0.4c-0.5,0.3-0.7,0.7-0.7,1.1c0,0.5,0.3,0.9,0.8,1.1c0.5,0.2,1.3,0.4,2.5,0.6c1.1,0.2,2,0.4,2.7,0.6
		c0.7,0.2,1.3,0.6,1.8,1.1c0.5,0.5,0.8,1.3,0.8,2.3c0,1.3-0.6,2.3-1.7,3.1c-1.1,0.8-2.7,1.2-4.6,1.2C82.6,19.9,81.5,19.8,80.5,19.5z
		"/>
	<path d="M109.3,1.5v18.2H106v-7.8h-9.4v7.8h-3.4V1.5h3.4V9h9.4V1.5H109.3z"/>
	<path d="M127.4,5.9v13.9h-3.1V18c-0.5,0.6-1.2,1.1-1.9,1.4c-0.8,0.3-1.6,0.5-2.5,0.5c-1.9,0-3.3-0.5-4.4-1.5
		c-1.1-1-1.6-2.6-1.6-4.6V5.9h3.2v7.5c0,1.2,0.3,2.2,0.8,2.8c0.6,0.6,1.4,0.9,2.4,0.9c1.2,0,2.1-0.4,2.8-1.1c0.7-0.7,1-1.8,1-3.1v-7
		H127.4z"/>
	<path d="M142.9,6.6c1.1,0.6,1.9,1.4,2.5,2.5c0.6,1.1,0.9,2.3,0.9,3.7c0,1.4-0.3,2.6-0.9,3.7c-0.6,1.1-1.4,1.9-2.5,2.5
		c-1.1,0.6-2.3,0.9-3.6,0.9c-1,0-1.8-0.2-2.6-0.5s-1.5-0.8-2-1.5v1.8h-3.1V0.4h3.2v7.1c0.6-0.6,1.2-1.1,2-1.4s1.6-0.5,2.5-0.5
		C140.7,5.7,141.9,6,142.9,6.6z M141.9,15.9c0.8-0.8,1.2-1.8,1.2-3.1c0-1.3-0.4-2.3-1.2-3.1s-1.8-1.2-3-1.2c-0.8,0-1.5,0.2-2.1,0.5
		c-0.6,0.4-1.1,0.9-1.5,1.5c-0.4,0.7-0.5,1.4-0.5,2.3s0.2,1.6,0.5,2.3c0.4,0.7,0.9,1.2,1.5,1.5c0.6,0.4,1.3,0.5,2.1,0.5
		C140.2,17.1,141.1,16.7,141.9,15.9z"/>
</g>
</svg>
